<?xml version="1.0" standalone="no"?>
<!DOCTYPE svg PUBLIC "-//W3C//DTD SVG 20010904//EN"
 "http://www.w3.org/TR/2001/REC-SVG-20010904/DTD/svg10.dtd">
<svg version="1.0" xmlns="http://www.w3.org/2000/svg"
 width="250.000000pt" height="250.000000pt" viewBox="0 0 250.000000 250.000000"
 preserveAspectRatio="xMidYMid meet">

<g transform="translate(0.000000,250.000000) scale(0.100000,-0.100000)"
fill="#000000" stroke="none">
<path d="M640 1862 c0 -5 10 -13 23 -19 18 -8 31 -38 68 -158 25 -82 50 -150
56 -152 5 -2 27 45 48 104 21 59 41 111 44 115 3 4 24 -44 46 -107 22 -63 44
-115 50 -115 6 0 32 67 58 150 34 108 53 152 67 160 36 19 21 30 -40 30 -59 0
-79 -13 -40 -25 27 -8 25 -32 -9 -135 l-27 -85 -40 118 c-26 79 -43 117 -52
115 -8 -2 -29 -51 -49 -112 -19 -59 -38 -104 -43 -100 -7 8 -18 42 -56 176 -3
10 3 19 16 23 41 13 18 25 -50 25 -38 0 -70 -4 -70 -8z"/>
<path d="M1370 1851 c25 -7 25 -7 28 -143 l3 -137 -28 -15 c-27 -15 -25 -15
47 -15 72 0 74 0 47 15 l-28 15 3 137 c3 136 3 136 28 143 15 4 -5 7 -50 7
-45 0 -65 -3 -50 -7z"/>
<path d="M1310 1351 c0 -5 9 -13 20 -16 19 -6 20 -15 20 -146 0 -132 -1 -139
-20 -139 -11 0 -20 -4 -20 -10 0 -6 30 -10 70 -10 40 0 70 4 70 10 0 6 -8 10
-19 10 -20 0 -31 26 -31 78 0 32 0 32 51 32 43 0 55 5 80 29 50 51 37 130 -26
157 -38 16 -195 20 -195 5z m181 -42 c37 -37 13 -115 -36 -119 -53 -6 -55 -4
-55 63 0 35 3 67 7 70 14 15 64 6 84 -14z"/>
<path d="M855 1338 c-31 -16 -45 -39 -45 -71 0 -43 14 -62 72 -97 29 -18 56
-38 60 -44 14 -20 8 -63 -10 -79 -37 -34 -86 -14 -120 48 -10 18 -11 16 -12
-16 0 -41 11 -54 55 -62 70 -13 135 27 135 83 0 47 -15 67 -76 101 -30 17 -59
40 -65 51 -26 49 24 100 76 76 14 -6 25 -14 25 -18 0 -3 7 -15 15 -26 14 -18
14 -18 15 8 0 15 -7 34 -16 42 -18 18 -79 21 -109 4z"/>
<path d="M1670 765 c0 -63 4 -105 10 -105 6 0 10 42 10 105 0 63 -4 105 -10
105 -6 0 -10 -42 -10 -105z"/>
<path d="M1740 845 c0 -9 5 -15 11 -13 6 2 11 8 11 13 0 5 -5 11 -11 13 -6 2
-11 -4 -11 -13z"/>
<path d="M1365 775 c-14 -13 -25 -33 -25 -45 0 -27 43 -70 70 -70 12 0 32 11
45 25 14 13 25 34 25 45 0 12 -11 32 -25 45 -13 14 -33 25 -45 25 -11 0 -32
-11 -45 -25z m71 -3 c34 -23 15 -92 -26 -92 -11 0 -26 11 -35 24 -22 34 -3 76
35 76 8 0 20 -4 26 -8z"/>
<path d="M1510 730 c0 -40 4 -70 10 -70 6 0 10 18 10 41 0 50 15 79 40 79 25
0 40 -29 40 -79 0 -23 5 -41 10 -41 6 0 10 24 10 53 0 69 -25 97 -71 80 -16
-6 -29 -7 -29 -2 0 5 -4 9 -10 9 -6 0 -10 -30 -10 -70z"/>
<path d="M1740 730 c0 -40 4 -70 10 -70 6 0 10 30 10 70 0 40 -4 70 -10 70 -6
0 -10 -30 -10 -70z"/>
<path d="M1810 730 c0 -40 4 -70 10 -70 6 0 10 18 10 41 0 50 15 79 40 79 25
0 40 -29 40 -79 0 -23 5 -41 10 -41 6 0 10 24 10 53 0 69 -25 97 -71 80 -16
-6 -29 -7 -29 -2 0 5 -4 9 -10 9 -6 0 -10 -30 -10 -70z"/>
<path d="M1985 775 c-14 -13 -25 -33 -25 -45 0 -45 85 -93 105 -60 4 6 -6 10
-22 10 -33 0 -47 8 -56 33 -6 15 0 17 43 17 42 0 50 3 50 18 0 23 -30 52 -54
52 -9 0 -28 -11 -41 -25z m73 -12 c2 -9 -8 -13 -32 -13 -34 0 -44 8 -29 24 11
11 56 2 61 -11z"/>
</g>
</svg>
